# xmcd
#
# Track frame offsets: 
#        150
#        22182
#        36596
#        53420
#        67118
#        88246
#        108309
#        124363
#        144044
#        169271
#
# Disc length: 2411 seconds
#
# Revision: 1
# Processed by: cddbd v1.5.2PL0 Copyright (c) Steve Scherf et al.
# Submitted via: ExactAudioCopyFreeDBPlugin 1.0
#
DISCID=8f09690a
DTITLE=Archie Bronson Unit - Coconut
DYEAR=2010
DGENRE=Rock
TTITLE0=Magnetic Warrior
TTITLE1=Shark's Tooth
TTITLE2=Hoola
TTITLE3=Wild Strawberries
TTITLE4=Chunk
TTITLE5=You Have A Right To A Mountain Life - One Up On Yourself
TTITLE6=Bite It and Believe It
TTITLE7=Hunt You Down
TTITLE8=Harness (Bliss)
TTITLE9=Run Gospel Singer
EXTD=
EXTT0=
EXTT1=
EXTT2=
EXTT3=
EXTT4=
EXTT5=
EXTT6=
EXTT7=
EXTT8=
EXTT9=
PLAYORDER=
